<?xml version="1.0" encoding="UTF-8" standalone="no"?>
<svg width="270.933mm" height="40.4812mm"
 xmlns="http://www.w3.org/2000/svg" xmlns:xlink="http://www.w3.org/1999/xlink"  version="1.2" baseProfile="tiny">
<desc>Created by EvoPdf</desc>
<defs>
</defs>
<g fill="none" stroke="black" stroke-width="1" fill-rule="evenodd" stroke-linecap="square" stroke-linejoin="bevel" >

<g fill="#000000" fill-opacity="1" stroke="#000000" stroke-opacity="1" stroke-width="1" stroke-linecap="square" stroke-linejoin="miter" stroke-miterlimit="2" transform="matrix(1,0,0,1,0,0)"
>
</g>

<g fill="#000000" fill-opacity="1" stroke="#000000" stroke-opacity="1" stroke-width="1" stroke-linecap="square" stroke-linejoin="miter" stroke-miterlimit="2" transform="matrix(1,0,0,1,0,0)"
>
</g>

<g fill="#000000" fill-opacity="1" stroke="#000000" stroke-opacity="1" stroke-width="1" stroke-linecap="square" stroke-linejoin="miter" stroke-miterlimit="2" transform="matrix(1,0,0,1,0,0)"
>
</g>

<g fill="#000000" fill-opacity="1" stroke="#000000" stroke-opacity="1" stroke-width="1" stroke-linecap="square" stroke-linejoin="miter" stroke-miterlimit="2" transform="matrix(1,0,0,1,0,0)"
>
</g>

<g fill="#000000" fill-opacity="1" stroke="#000000" stroke-opacity="1" stroke-width="1" stroke-linecap="square" stroke-linejoin="miter" stroke-miterlimit="2" transform="matrix(1,0,0,1,8,8)"
>
</g>

<g fill="#264f38" fill-opacity="1" stroke="none" transform="matrix(1,0,0,1,8,8)"
>
<path vector-effect="none" fill-rule="nonzero" d="M68.5002,137 C54.9519,137.001 41.7077,132.984 30.4425,125.457 C19.1772,117.931 10.3971,107.232 5.21246,94.7152 C0.0278236,82.1982 -1.32842,68.4248 1.31526,55.137 C3.95895,41.8492 10.4838,29.6437 20.0646,20.0644 C26.4253,13.7037 33.9765,8.65819 42.2871,5.21583 C50.5976,1.77347 59.5049,0.00170905 68.5002,0.00170898 C77.4955,0.00170892 86.4028,1.77347 94.7134,5.21583 C103.024,8.65819 110.575,13.7037 116.936,20.0644 C123.296,26.425 128.342,33.9762 131.784,42.2868 C135.227,50.5974 136.998,59.5047 136.998,68.5 C136.998,77.4953 135.227,86.4025 131.784,94.7131 C128.342,103.024 123.296,110.575 116.936,116.936 C110.59,123.316 103.042,128.375 94.7277,131.819 C86.4137,135.263 77.4993,137.024 68.5002,137 M68.5002,7.50178 C34.8662,7.50178 7.502,34.866 7.502,68.5 C7.502,102.134 34.8662,129.498 68.5002,129.498 C102.134,129.498 129.498,102.14 129.498,68.5 C129.498,34.8602 102.14,7.50178 68.5002,7.50178 "/>
</g>

<g fill="#000000" fill-opacity="1" stroke="#000000" stroke-opacity="1" stroke-width="1" stroke-linecap="square" stroke-linejoin="miter" stroke-miterlimit="2" transform="matrix(1,0,0,1,8,8)"
>
</g>

<g fill="#264f38" fill-opacity="1" stroke="none" transform="matrix(1,0,0,1,8,8)"
>
<path vector-effect="none" fill-rule="nonzero" d="M122.314,65.2281 L115.456,58.716 L111.243,46.5025 L79.3462,38.0457 L83.224,52.7607 L91.3202,61.0617 C91.556,61.2726 91.7244,61.5483 91.8042,61.8545 C91.884,62.1606 91.8717,62.4834 91.7688,62.7826 C91.6659,63.0817 91.477,63.3439 91.2258,63.5361 C90.9745,63.7284 90.6722,63.8422 90.3565,63.8634 L80.9706,64.6395 L110.228,67.545 L121.76,66.7717 C121.933,66.759 122.099,66.6963 122.237,66.5912 C122.375,66.4862 122.48,66.3433 122.539,66.1799 C122.597,66.0166 122.607,65.8397 122.568,65.6707 C122.528,65.5018 122.44,65.348 122.314,65.2281 M102.746,55.9749 C101.681,51.7422 100.291,48.2019 99.6385,48.0721 C98.9864,47.9422 99.2577,51.0007 100.242,54.9103 L99.2981,54.7198 C98.3142,50.8102 96.9898,47.5354 96.3406,47.4056 C95.6914,47.2757 96.0261,50.5996 97.0908,54.8323 L96.1473,54.6419 C94.9932,50.0831 95.0192,46.5631 96.1906,46.8141 C96.8571,46.9497 97.7313,48.1817 98.5565,49.9879 C98.5104,48.3289 98.8249,47.3363 99.4914,47.4719 C100.663,47.7085 102.541,51.5979 103.689,56.1567 L102.746,55.9749"/>
</g>

<g fill="#000000" fill-opacity="1" stroke="#000000" stroke-opacity="1" stroke-width="1" stroke-linecap="square" stroke-linejoin="miter" stroke-miterlimit="2" transform="matrix(1,0,0,1,8,8)"
>
</g>

<g fill="#264f38" fill-opacity="1" stroke="none" transform="matrix(1,0,0,1,8,8)"
>
<path vector-effect="none" fill-rule="nonzero" d="M50.0199,64.4923 C49.6978,64.4715 49.3894,64.354 49.1351,64.1551 C48.8808,63.9563 48.6924,63.6854 48.5946,63.3777 C48.4967,63.0701 48.4939,62.7401 48.5866,62.4309 C48.6793,62.1217 48.863,61.8476 49.114,61.6445 L59.8386,52.9482 L64.4263,39.6758 L25.3304,51.1333 L19.7704,60.8222 L11.7493,67.8739 C11.6537,67.9624 11.5861,68.0771 11.555,68.2036 C11.5238,68.3302 11.5305,68.463 11.574,68.5859 C11.6176,68.7087 11.6963,68.816 11.8003,68.8946 C11.9042,68.9732 12.0289,69.0196 12.159,69.028 L22.7192,69.481 L63.376,65.3925 L63.376,65.3348 L50.0199,64.4923 M29.7016,59.394 L28.9226,59.5555 C30.446,55.8046 31.2482,52.8674 30.7115,52.9799 C30.1748,53.0924 28.5966,55.9749 27.1885,59.4372 L26.4095,59.5988 C27.8175,56.1364 28.5244,53.4329 27.9878,53.5397 C27.4511,53.6464 25.7776,56.7799 24.2369,60.5221 L23.4607,60.6866 C25.1025,56.6471 27.2116,53.2194 28.184,53.0203 C28.7351,52.9049 28.8274,53.7849 28.5215,55.2535 C29.4679,53.6522 30.3595,52.5673 30.9106,52.4519 C31.8916,52.2557 31.3434,55.3603 29.7016,59.394 "/>
</g>

<g fill="#000000" fill-opacity="1" stroke="#000000" stroke-opacity="1" stroke-width="1" stroke-linecap="square" stroke-linejoin="miter" stroke-miterlimit="2" transform="matrix(1,0,0,1,8,8)"
>
</g>

<g fill="#264f38" fill-opacity="1" stroke="none" transform="matrix(1,0,0,1,8,8)"
>
<path vector-effect="none" fill-rule="nonzero" d="M32.5637,70.2917 L32.5637,69.6945 L26.2593,70.2398 L26.2593,70.2427 L26.2593,81.6627 L27.2259,81.6887 L27.2259,70.7534 L32.5637,70.2917"/>
</g>

<g fill="#000000" fill-opacity="1" stroke="#000000" stroke-opacity="1" stroke-width="1" stroke-linecap="square" stroke-linejoin="miter" stroke-miterlimit="2" transform="matrix(1,0,0,1,8,8)"
>
</g>

<g fill="#264f38" fill-opacity="1" stroke="none" transform="matrix(1,0,0,1,8,8)"
>
<path vector-effect="none" fill-rule="nonzero" d="M40.8621,69.5155 L40.8621,68.8663 L33.2939,69.5473 L33.2939,69.5502 L33.2939,82.0349 L34.3471,82.0637 L34.3471,70.1041 L40.8621,69.5155"/>
</g>

<g fill="#000000" fill-opacity="1" stroke="#000000" stroke-opacity="1" stroke-width="1" stroke-linecap="square" stroke-linejoin="miter" stroke-miterlimit="2" transform="matrix(1,0,0,1,8,8)"
>
</g>

<g fill="#264f38" fill-opacity="1" stroke="none" transform="matrix(1,0,0,1,8,8)"
>
<path vector-effect="none" fill-rule="nonzero" d="M50.8248,68.7395 L50.8248,67.9431 L41.5918,68.6875 L41.5918,68.7799 L41.5918,82.3033 L42.7315,82.335 L42.7315,69.3915 L50.8248,68.7395"/>
</g>

<g fill="#000000" fill-opacity="1" stroke="#000000" stroke-opacity="1" stroke-width="1" stroke-linecap="square" stroke-linejoin="miter" stroke-miterlimit="2" transform="matrix(1,0,0,1,8,8)"
>
</g>

<g fill="#264f38" fill-opacity="1" stroke="none" transform="matrix(1,0,0,1,8,8)"
>
<path vector-effect="none" fill-rule="nonzero" d="M62.5655,67.6949 L62.5655,66.7399 L51.5552,67.7584 L51.5552,67.868 L51.5552,82.7446 L52.9286,82.7822 L52.9286,68.5865 L62.5655,67.6949"/>
</g>

<g fill="#000000" fill-opacity="1" stroke="#000000" stroke-opacity="1" stroke-width="1" stroke-linecap="square" stroke-linejoin="miter" stroke-miterlimit="2" transform="matrix(1,0,0,1,8,8)"
>
</g>

<g fill="#264f38" fill-opacity="1" stroke="none" transform="matrix(1,0,0,1,8,8)"
>
<path vector-effect="none" fill-rule="nonzero" d="M91.0923,67.2852 L91.0923,67.1727 L83.5068,66.4023 L83.5068,67.3603 L89.7189,68.0152 L89.7189,89.655 L83.6742,90.3475 L83.6742,93.6107 L91.0923,92.9183 L91.0923,67.2852"/>
</g>

<g fill="#000000" fill-opacity="1" stroke="#000000" stroke-opacity="1" stroke-width="1" stroke-linecap="square" stroke-linejoin="miter" stroke-miterlimit="2" transform="matrix(1,0,0,1,8,8)"
>
</g>

<g fill="#264f38" fill-opacity="1" stroke="none" transform="matrix(1,0,0,1,8,8)"
>
<path vector-effect="none" fill-rule="nonzero" d="M112.512,68.8606 L110.017,69.0222 L109.48,68.9212 L109.48,91.1986 L112.512,90.9158 L112.512,68.8606"/>
</g>

<g fill="#000000" fill-opacity="1" stroke="#000000" stroke-opacity="1" stroke-width="1" stroke-linecap="square" stroke-linejoin="miter" stroke-miterlimit="2" transform="matrix(1,0,0,1,8,8)"
>
</g>

<g fill="#264f38" fill-opacity="1" stroke="none" transform="matrix(1,0,0,1,8,8)"
>
<path vector-effect="none" fill-rule="nonzero" d="M108.612,68.8636 L108.612,68.7655 L102.125,68.223 L102.125,68.9501 L107.411,69.3916 L107.411,88.3826 L102.125,88.9539 L102.125,91.8854 L108.612,91.2795 L108.612,68.8636"/>
</g>

<g fill="#000000" fill-opacity="1" stroke="#000000" stroke-opacity="1" stroke-width="1" stroke-linecap="square" stroke-linejoin="miter" stroke-miterlimit="2" transform="matrix(1,0,0,1,8,8)"
>
</g>

<g fill="#264f38" fill-opacity="1" stroke="none" transform="matrix(1,0,0,1,8,8)"
>
<path vector-effect="none" fill-rule="nonzero" d="M92.2637,67.3344 L92.2637,68.1711 L100.452,68.8664 L100.452,71.3016 L101.39,71.342 L101.39,68.2057 L101.39,68.1076 L92.2637,67.3344"/>
</g>

<g fill="#000000" fill-opacity="1" stroke="#000000" stroke-opacity="1" stroke-width="1" stroke-linecap="square" stroke-linejoin="miter" stroke-miterlimit="2" transform="matrix(1,0,0,1,8,8)"
>
</g>

<g fill="#264f38" fill-opacity="1" stroke="none" transform="matrix(1,0,0,1,8,8)"
>
<path vector-effect="none" fill-rule="nonzero" d="M101.439,72.173 L92.313,71.6912 L92.313,92.8029 L101.439,91.9518 L101.439,72.173 M96.6611,89.1963 L93.1988,89.5022 L93.1988,72.6635 L96.6611,72.8482 L96.6611,89.1963 M97.5267,89.1963 L97.5267,72.8597 L100.525,72.9895 L100.525,88.8962 L97.5267,89.1963"/>
</g>

<g fill="#000000" fill-opacity="1" stroke="#000000" stroke-opacity="1" stroke-width="1" stroke-linecap="square" stroke-linejoin="miter" stroke-miterlimit="2" transform="matrix(1,0,0,1,8,8)"
>
</g>

<g fill="#264f38" fill-opacity="1" stroke="none" transform="matrix(1,0,0,1,8,8)"
>
<path vector-effect="none" fill-rule="nonzero" d="M101.439,92.1509 L101.439,91.9518 L92.313,92.803 L92.313,92.9559 L101.439,92.1509"/>
</g>

<g fill="#000000" fill-opacity="1" stroke="#000000" stroke-opacity="1" stroke-width="1" stroke-linecap="square" stroke-linejoin="miter" stroke-miterlimit="2" transform="matrix(1,0,0,1,8,8)"
>
</g>

<g fill="#264f38" fill-opacity="1" stroke="none" transform="matrix(1,0,0,1,8,8)"
>
<path vector-effect="none" fill-rule="nonzero" d="M78.6995,64.9741 L78.6995,63.5632 C78.6995,63.3632 78.7745,63.1705 78.9096,63.023 C79.0448,62.8756 79.2303,62.7842 79.4295,62.7669 L89.3405,61.9359 L81.4146,53.8051 L78.8813,44.1999 L73.3415,42.7948 L64.6856,45.0742 L61.5493,54.1542 L51.1997,62.5447 L64.5702,63.4334 C64.7376,63.445 64.8943,63.5197 65.0089,63.6423 C65.1235,63.7649 65.1873,63.9263 65.1877,64.0941 L65.1877,65.5974 C65.1878,65.7682 65.1218,65.9324 65.0034,66.0556 C64.8851,66.1788 64.7236,66.2514 64.5529,66.2581 L63.4334,66.3043 L63.4334,93.5617 L72.3778,94.6697 L82.4764,93.7233 L82.4764,66.0734 L79.4295,65.7849 C79.228,65.7667 79.0408,65.6731 78.9055,65.5227 C78.7701,65.3724 78.6965,65.1764 78.6995,64.9741 "/>
</g>

<g fill="#000000" fill-opacity="1" stroke="#000000" stroke-opacity="1" stroke-width="1" stroke-linecap="square" stroke-linejoin="miter" stroke-miterlimit="2" transform="matrix(1,0,0,1,8,8)"
>
</g>

<g fill="#264f38" fill-opacity="1" stroke="none" transform="matrix(1,0,0,1,8,8)"
>
<path vector-effect="none" fill-rule="nonzero" d="M25.4256,82.6985 L25.4256,70.3552 L22.3037,70.6553 L22.3816,88.4691 L62.0747,93.3915 L62.0747,84.2451 L25.4256,82.6985"/>
</g>

<g fill="#000000" fill-opacity="1" stroke="#000000" stroke-opacity="1" stroke-width="1" stroke-linecap="square" stroke-linejoin="miter" stroke-miterlimit="2" transform="matrix(1,0,0,1,8,8)"
>
</g>

<g fill="#000000" fill-opacity="1" stroke="#000000" stroke-opacity="1" stroke-width="1" stroke-linecap="square" stroke-linejoin="miter" stroke-miterlimit="2" transform="matrix(1,0,0,1,8,8)"
>
</g>

<g fill="#000000" fill-opacity="1" stroke="#000000" stroke-opacity="1" stroke-width="1" stroke-linecap="square" stroke-linejoin="miter" stroke-miterlimit="2" transform="matrix(1,0,0,1,0,0)"
>
</g>

<g fill="#000000" fill-opacity="1" stroke="#000000" stroke-opacity="1" stroke-width="1" stroke-linecap="square" stroke-linejoin="miter" stroke-miterlimit="2" transform="matrix(1,0,0,1,0,0)"
>
</g>

<g fill="#000000" fill-opacity="1" stroke="#000000" stroke-opacity="1" stroke-width="1" stroke-linecap="square" stroke-linejoin="miter" stroke-miterlimit="2" transform="matrix(1,0,0,1,0,0)"
>
</g>

<g fill="#000000" fill-opacity="1" stroke="#000000" stroke-opacity="1" stroke-width="1" stroke-linecap="square" stroke-linejoin="miter" stroke-miterlimit="2" transform="matrix(1,0,0,1,0,0)"
>
</g>

<g fill="#000000" fill-opacity="1" stroke="#000000" stroke-opacity="1" stroke-width="1" stroke-linecap="square" stroke-linejoin="miter" stroke-miterlimit="2" transform="matrix(1,0,0,1,8,8)"
>
</g>

<g fill="#000000" fill-opacity="1" stroke="#000000" stroke-opacity="1" stroke-width="1" stroke-linecap="square" stroke-linejoin="miter" stroke-miterlimit="2" transform="matrix(1,0,0,1,0,0)"
>
</g>

<g fill="#000000" fill-opacity="1" stroke="#000000" stroke-opacity="1" stroke-width="1" stroke-linecap="square" stroke-linejoin="miter" stroke-miterlimit="2" transform="matrix(1,0,0,1,0,0)"
>
</g>

<g fill="#000000" fill-opacity="1" stroke="#000000" stroke-opacity="1" stroke-width="1" stroke-linecap="square" stroke-linejoin="miter" stroke-miterlimit="2" transform="matrix(1,0,0,1,0,0)"
>
</g>

<g fill="#000000" fill-opacity="1" stroke="#000000" stroke-opacity="1" stroke-width="1" stroke-linecap="square" stroke-linejoin="miter" stroke-miterlimit="2" transform="matrix(1,0,0,1,0,0)"
>
</g>

<g fill="#000000" fill-opacity="1" stroke="#000000" stroke-opacity="1" stroke-width="1" stroke-linecap="square" stroke-linejoin="miter" stroke-miterlimit="2" transform="matrix(1,0,0,1,0,0)"
>
</g>

<g fill="#000000" fill-opacity="1" stroke="#000000" stroke-opacity="1" stroke-width="1" stroke-linecap="square" stroke-linejoin="miter" stroke-miterlimit="2" transform="matrix(1,0,0,1,0,0)"
>
</g>
</g>
</svg>
